<?xml version="1.0" encoding="utf-8"?>
<!-- Generator: Adobe Illustrator 18.0.0, SVG Export Plug-In . SVG Version: 6.00 Build 0)  -->
<!DOCTYPE svg PUBLIC "-//W3C//DTD SVG 1.1//EN" "http://www.w3.org/Graphics/SVG/1.1/DTD/svg11.dtd">
<svg version="1.1" id="Layer_1" xmlns="http://www.w3.org/2000/svg" xmlns:xlink="http://www.w3.org/1999/xlink" x="0px" y="0px"
	 width="300px" height="300px" viewBox="0 0 300 300" style="enable-background:new 0 0 300 300;" xml:space="preserve">
<g>
	<path d="M152.1,64.7c2.3,2.3,6.2,2.3,8.5,0l27-27c2.3-2.3,2.3-6.2,0-8.5l-27-27c-2.3-2.3-6.2-2.3-8.5,0l-27,27
		c-2.3,2.3-2.3,6.2,0,8.5L152.1,64.7z"/>
	<path d="M271.2,142.1l-29.5-29.5c-2.3-2.3-6.2-2.3-8.5,0l-29.5,29.5c-2.3,2.3-2.3,6.2,0,8.5l29.5,29.5c2.3,2.3,6.2,2.3,8.5,0
		l29.5-29.5C273.6,148.2,273.6,144.4,271.2,142.1z"/>
	<path d="M108.6,220.4l-27-27c-2.3-2.3-6.2-2.3-8.5,0l-27,27c-2.3,2.3-2.3,6.2,0,8.5l27,27c2.3,2.3,6.2,2.3,8.5,0l27-27
		C110.9,226.6,110.9,222.7,108.6,220.4z"/>
	<path d="M121.4,232.9c-2.3-2.3-6.2-2.3-8.5,0l-27,27c-2.3,2.3-2.3,6.2,0,8.5l27,27c2.3,2.3,6.2,2.3,8.5,0l27-27
		c2.3-2.3,2.3-6.2,0-8.5L121.4,232.9z"/>
	<path d="M121.1,216.8l83.8-83.8c2.3-2.3,2.3-6.2,0-8.5l-83.8-83.8c-2.3-2.3-6.2-2.3-8.5,0l-83.8,83.8c-2.3,2.3-2.3,6.2,0,8.5
		l83.8,83.8C114.9,219.1,118.7,219.1,121.1,216.8z"/>
	<path d="M200,154.4c-2.3-2.3-6.2-2.3-8.5,0L125,220.9c-2.3,2.3-2.3,6.2,0,8.5l66.5,66.5c2.3,2.3,6.2,2.3,8.5,0l66.5-66.5
		c2.3-2.3,2.3-6.2,0-8.5L200,154.4z"/>
</g>
</svg>
